<?xml version="1.0" encoding="utf-8"?>
<!-- Generated by IcoMoon.io -->
<!DOCTYPE svg PUBLIC "-//W3C//DTD SVG 1.1//EN" "http://www.w3.org/Graphics/SVG/1.1/DTD/svg11.dtd">
<svg version="1.1" xmlns="http://www.w3.org/2000/svg" xmlns:xlink="http://www.w3.org/1999/xlink" width="30" height="30" viewBox="0 0 30 30">
<path fill="#fff" d="M13.5 15h3v3h13.5c0 0-0.224-6.689-0.3-8.781-0.075-1.989-0.787-3.219-3-3.219h-4.812c-0.745-1.407-1.548-2.917-1.795-3.384-0.496-0.935-0.666-1.116-1.769-1.116h-6.65c-1.103 0-1.27 0.181-1.769 1.116-0.248 0.466-1.050 1.977-1.794 3.384h-4.814c-2.214 0-2.918 1.23-3 3.219-0.081 1.99-0.299 8.781-0.299 8.781h13.5v-3zM11.474 4.374c0.345-0.648 0.462-0.774 1.225-0.774h4.6c0.764 0 0.882 0.126 1.224 0.774 0.129 0.24 0.477 0.9 0.863 1.626h-8.775c0.385-0.726 0.734-1.386 0.863-1.626zM16.5 22.5h-3v-3h-12.75c0 0 0.186 2.695 0.299 4.983 0.046 0.95 0.327 2.517 2.7 2.517h22.501c2.373 0 2.648-1.57 2.7-2.517 0.13-2.352 0.3-4.983 0.3-4.983h-12.75v3z"></path>
</svg>
