<?xml version="1.0" encoding="utf-8"?>
<!-- Generated by IcoMoon.io -->
<!DOCTYPE svg PUBLIC "-//W3C//DTD SVG 1.1//EN" "http://www.w3.org/Graphics/SVG/1.1/DTD/svg11.dtd">
<svg version="1.1" xmlns="http://www.w3.org/2000/svg" xmlns:xlink="http://www.w3.org/1999/xlink" width="30" height="30" viewBox="0 0 30 30">
<path fill="#fff" d="M2.361 7.929c0.732 0.393 10.872 5.841 11.25 6.044s0.867 0.299 1.359 0.299c0.492 0 0.981-0.096 1.359-0.299s10.518-5.65 11.25-6.044c0.734-0.395 1.426-1.929 0.081-1.929h-25.379c-1.345 0-0.652 1.535 0.080 1.929zM27.92 11.234c-0.832 0.434-11.080 5.774-11.59 6.040s-0.867 0.299-1.359 0.299-0.849-0.031-1.359-0.299-10.7-5.609-11.532-6.042c-0.585-0.306-0.579 0.053-0.579 0.329s0 10.94 0 10.94c0 0.63 0.849 1.5 1.5 1.5h24c0.651 0 1.5-0.87 1.5-1.5 0 0 0-10.662 0-10.938s0.006-0.635-0.58-0.329z"></path>
</svg>
